<mxfile host="65bd71144e">
    <diagram id="TkOOXMRYUHoH81-WiDen" name="Standard">
        <mxGraphModel dx="997" dy="782" grid="0" gridSize="10" guides="1" tooltips="1" connect="1" arrows="1" fold="1" page="1" pageScale="1" pageWidth="827" pageHeight="1169" math="0" shadow="0">
            <root>
                <mxCell id="0"/>
                <mxCell id="1" parent="0"/>
                <mxCell id="8" value="" style="edgeStyle=none;html=1;entryX=0.5;entryY=0;entryDx=0;entryDy=0;endArrow=open;endFill=0;rounded=0;" parent="1" source="2" target="3" edge="1">
                    <mxGeometry relative="1" as="geometry"/>
                </mxCell>
                <mxCell id="2" value="Client" style="html=1;fontStyle=1" parent="1" vertex="1">
                    <mxGeometry x="288.5" y="113" width="110" height="50" as="geometry"/>
                </mxCell>
                <mxCell id="16" value="" style="edgeStyle=none;rounded=0;html=1;endArrow=open;endFill=0;startArrow=diamondThin;startFill=0;" parent="1" source="3" edge="1">
                    <mxGeometry relative="1" as="geometry">
                        <mxPoint x="513.5" y="292" as="targetPoint"/>
                    </mxGeometry>
                </mxCell>
                <mxCell id="3" value="Abstraction" style="swimlane;fontStyle=1;align=center;verticalAlign=top;childLayout=stackLayout;horizontal=1;startSize=26;horizontalStack=0;resizeParent=1;resizeParentMax=0;resizeLast=0;collapsible=1;marginBottom=0;" parent="1" vertex="1">
                    <mxGeometry x="263.5" y="236" width="160" height="112" as="geometry"/>
                </mxCell>
                <mxCell id="4" value="- i: Implementation" style="text;strokeColor=none;fillColor=none;align=left;verticalAlign=top;spacingLeft=4;spacingRight=4;overflow=hidden;rotatable=0;points=[[0,0.5],[1,0.5]];portConstraint=eastwest;" parent="3" vertex="1">
                    <mxGeometry y="26" width="160" height="26" as="geometry"/>
                </mxCell>
                <mxCell id="5" value="" style="line;strokeWidth=1;fillColor=none;align=left;verticalAlign=middle;spacingTop=-1;spacingLeft=3;spacingRight=3;rotatable=0;labelPosition=right;points=[];portConstraint=eastwest;" parent="3" vertex="1">
                    <mxGeometry y="52" width="160" height="8" as="geometry"/>
                </mxCell>
                <mxCell id="6" value="+ feature1()" style="text;strokeColor=none;fillColor=none;align=left;verticalAlign=top;spacingLeft=4;spacingRight=4;overflow=hidden;rotatable=0;points=[[0,0.5],[1,0.5]];portConstraint=eastwest;" parent="3" vertex="1">
                    <mxGeometry y="60" width="160" height="26" as="geometry"/>
                </mxCell>
                <mxCell id="7" value="+ feature2()" style="text;strokeColor=none;fillColor=none;align=left;verticalAlign=top;spacingLeft=4;spacingRight=4;overflow=hidden;rotatable=0;points=[[0,0.5],[1,0.5]];portConstraint=eastwest;" parent="3" vertex="1">
                    <mxGeometry y="86" width="160" height="26" as="geometry"/>
                </mxCell>
                <mxCell id="9" value="«interface»&#10;Implementation" style="swimlane;fontStyle=1;align=center;verticalAlign=top;childLayout=stackLayout;horizontal=1;startSize=39;horizontalStack=0;resizeParent=1;resizeParentMax=0;resizeLast=0;collapsible=1;marginBottom=0;" parent="1" vertex="1">
                    <mxGeometry x="514.5" y="233.5" width="160" height="117" as="geometry"/>
                </mxCell>
                <mxCell id="12" value="+ method1()" style="text;strokeColor=none;fillColor=none;align=left;verticalAlign=top;spacingLeft=4;spacingRight=4;overflow=hidden;rotatable=0;points=[[0,0.5],[1,0.5]];portConstraint=eastwest;" parent="9" vertex="1">
                    <mxGeometry y="39" width="160" height="26" as="geometry"/>
                </mxCell>
                <mxCell id="14" value="+ method2()" style="text;strokeColor=none;fillColor=none;align=left;verticalAlign=top;spacingLeft=4;spacingRight=4;overflow=hidden;rotatable=0;points=[[0,0.5],[1,0.5]];portConstraint=eastwest;" parent="9" vertex="1">
                    <mxGeometry y="65" width="160" height="26" as="geometry"/>
                </mxCell>
                <mxCell id="15" value="+ method3()" style="text;strokeColor=none;fillColor=none;align=left;verticalAlign=top;spacingLeft=4;spacingRight=4;overflow=hidden;rotatable=0;points=[[0,0.5],[1,0.5]];portConstraint=eastwest;" parent="9" vertex="1">
                    <mxGeometry y="91" width="160" height="26" as="geometry"/>
                </mxCell>
                <mxCell id="21" value="" style="edgeStyle=none;html=1;startArrow=none;startFill=0;endArrow=block;endFill=0;" parent="1" source="17" target="7" edge="1">
                    <mxGeometry relative="1" as="geometry"/>
                </mxCell>
                <mxCell id="17" value="RefinedAbstraction" style="swimlane;fontStyle=1;align=center;verticalAlign=top;childLayout=stackLayout;horizontal=1;startSize=26;horizontalStack=0;resizeParent=1;resizeParentMax=0;resizeLast=0;collapsible=1;marginBottom=0;" parent="1" vertex="1">
                    <mxGeometry x="263.5" y="425" width="160" height="86" as="geometry"/>
                </mxCell>
                <mxCell id="18" value="..." style="text;strokeColor=none;fillColor=none;align=left;verticalAlign=top;spacingLeft=4;spacingRight=4;overflow=hidden;rotatable=0;points=[[0,0.5],[1,0.5]];portConstraint=eastwest;" parent="17" vertex="1">
                    <mxGeometry y="26" width="160" height="26" as="geometry"/>
                </mxCell>
                <mxCell id="19" value="" style="line;strokeWidth=1;fillColor=none;align=left;verticalAlign=middle;spacingTop=-1;spacingLeft=3;spacingRight=3;rotatable=0;labelPosition=right;points=[];portConstraint=eastwest;" parent="17" vertex="1">
                    <mxGeometry y="52" width="160" height="8" as="geometry"/>
                </mxCell>
                <mxCell id="20" value="+ featureN()" style="text;strokeColor=none;fillColor=none;align=left;verticalAlign=top;spacingLeft=4;spacingRight=4;overflow=hidden;rotatable=0;points=[[0,0.5],[1,0.5]];portConstraint=eastwest;" parent="17" vertex="1">
                    <mxGeometry y="60" width="160" height="26" as="geometry"/>
                </mxCell>
                <mxCell id="23" value="" style="edgeStyle=none;html=1;startArrow=none;startFill=0;endArrow=block;endFill=0;dashed=1;" parent="1" source="22" target="15" edge="1">
                    <mxGeometry relative="1" as="geometry"/>
                </mxCell>
                <mxCell id="22" value="ConcreteImplementations" style="html=1;" parent="1" vertex="1">
                    <mxGeometry x="509.5" y="425" width="170" height="50" as="geometry"/>
                </mxCell>
                <mxCell id="24" value="(optional)" style="text;html=1;strokeColor=none;fillColor=none;align=center;verticalAlign=middle;whiteSpace=wrap;rounded=0;fontStyle=2;" parent="1" vertex="1">
                    <mxGeometry x="360.5" y="390" width="60" height="30" as="geometry"/>
                </mxCell>
                <mxCell id="25" value="abstraction.feature1()" style="whiteSpace=wrap;html=1;rounded=1;arcSize=50;align=center;verticalAlign=middle;strokeWidth=1;autosize=1;spacing=4;treeFolding=1;treeMoving=1;newEdgeStyle={&quot;edgeStyle&quot;:&quot;entityRelationEdgeStyle&quot;,&quot;startArrow&quot;:&quot;none&quot;,&quot;endArrow&quot;:&quot;none&quot;,&quot;segment&quot;:10,&quot;curved&quot;:1};" parent="1" vertex="1">
                    <mxGeometry x="446.5" y="99" width="149" height="26" as="geometry"/>
                </mxCell>
                <mxCell id="26" value="" style="edgeStyle=entityRelationEdgeStyle;startArrow=none;endArrow=none;segment=10;curved=1;dashed=1;exitX=1;exitY=0.5;exitDx=0;exitDy=0;" parent="1" source="2" target="25" edge="1">
                    <mxGeometry relative="1" as="geometry">
                        <mxPoint x="383.5" y="149" as="sourcePoint"/>
                    </mxGeometry>
                </mxCell>
                <mxCell id="27" value="i.method1()" style="whiteSpace=wrap;html=1;rounded=1;arcSize=50;align=center;verticalAlign=middle;strokeWidth=1;autosize=1;spacing=4;treeFolding=1;treeMoving=1;newEdgeStyle={&quot;edgeStyle&quot;:&quot;entityRelationEdgeStyle&quot;,&quot;startArrow&quot;:&quot;none&quot;,&quot;endArrow&quot;:&quot;none&quot;,&quot;segment&quot;:10,&quot;curved&quot;:1};" parent="1" vertex="1">
                    <mxGeometry x="153.5" y="264" width="96" height="26" as="geometry"/>
                </mxCell>
                <mxCell id="28" value="" style="edgeStyle=entityRelationEdgeStyle;startArrow=none;endArrow=none;segment=10;curved=1;dashed=1;exitX=0;exitY=0.5;exitDx=0;exitDy=0;" parent="1" source="6" target="27" edge="1">
                    <mxGeometry relative="1" as="geometry">
                        <mxPoint x="121.5" y="410" as="sourcePoint"/>
                    </mxGeometry>
                </mxCell>
                <mxCell id="29" value="i.method2()&lt;br&gt;i.method3()" style="whiteSpace=wrap;html=1;rounded=1;arcSize=50;align=center;verticalAlign=middle;strokeWidth=1;autosize=1;spacing=4;treeFolding=1;treeMoving=1;newEdgeStyle={&quot;edgeStyle&quot;:&quot;entityRelationEdgeStyle&quot;,&quot;startArrow&quot;:&quot;none&quot;,&quot;endArrow&quot;:&quot;none&quot;,&quot;segment&quot;:10,&quot;curved&quot;:1};" parent="1" vertex="1">
                    <mxGeometry x="148.5" y="336" width="96" height="40" as="geometry"/>
                </mxCell>
                <mxCell id="30" value="" style="edgeStyle=entityRelationEdgeStyle;startArrow=none;endArrow=none;segment=10;curved=1;dashed=1;exitX=0;exitY=0.5;exitDx=0;exitDy=0;" parent="1" source="7" target="29" edge="1">
                    <mxGeometry relative="1" as="geometry">
                        <mxPoint x="120.5" y="368" as="sourcePoint"/>
                    </mxGeometry>
                </mxCell>
                <mxCell id="31" value="i.methodN()&lt;br&gt;i.methodM()" style="whiteSpace=wrap;html=1;rounded=1;arcSize=50;align=center;verticalAlign=middle;strokeWidth=1;autosize=1;spacing=4;treeFolding=1;treeMoving=1;newEdgeStyle={&quot;edgeStyle&quot;:&quot;entityRelationEdgeStyle&quot;,&quot;startArrow&quot;:&quot;none&quot;,&quot;endArrow&quot;:&quot;none&quot;,&quot;segment&quot;:10,&quot;curved&quot;:1};" parent="1" vertex="1">
                    <mxGeometry x="147" y="430" width="99" height="40" as="geometry"/>
                </mxCell>
                <mxCell id="32" value="" style="edgeStyle=entityRelationEdgeStyle;startArrow=none;endArrow=none;segment=10;curved=1;dashed=1;exitX=0;exitY=0.5;exitDx=0;exitDy=0;" parent="1" source="20" target="31" edge="1">
                    <mxGeometry relative="1" as="geometry">
                        <mxPoint x="129.5" y="551" as="sourcePoint"/>
                    </mxGeometry>
                </mxCell>
            </root>
        </mxGraphModel>
    </diagram>
    <diagram id="E-a5rpCl65kqHB6elvcE" name="Practice">
        <mxGraphModel dx="997" dy="782" grid="0" gridSize="10" guides="1" tooltips="1" connect="1" arrows="1" fold="1" page="1" pageScale="1" pageWidth="827" pageHeight="1169" math="0" shadow="0">
            <root>
                <mxCell id="TPO9WZKhOtRQqy6y_dLW-0"/>
                <mxCell id="TPO9WZKhOtRQqy6y_dLW-1" parent="TPO9WZKhOtRQqy6y_dLW-0"/>
                <mxCell id="TPO9WZKhOtRQqy6y_dLW-28" style="edgeStyle=orthogonalEdgeStyle;rounded=0;html=1;exitX=0.5;exitY=1;exitDx=0;exitDy=0;startArrow=none;startFill=0;endArrow=open;endFill=0;" parent="TPO9WZKhOtRQqy6y_dLW-1" source="TPO9WZKhOtRQqy6y_dLW-2" target="TPO9WZKhOtRQqy6y_dLW-3" edge="1">
                    <mxGeometry relative="1" as="geometry"/>
                </mxCell>
                <mxCell id="TPO9WZKhOtRQqy6y_dLW-2" value="Client" style="html=1;fontStyle=1" parent="TPO9WZKhOtRQqy6y_dLW-1" vertex="1">
                    <mxGeometry x="185.5" y="89" width="110" height="50" as="geometry"/>
                </mxCell>
                <mxCell id="TPO9WZKhOtRQqy6y_dLW-3" value="CommandSender" style="swimlane;fontStyle=1;align=center;verticalAlign=top;childLayout=stackLayout;horizontal=1;startSize=26;horizontalStack=0;resizeParent=1;resizeParentMax=0;resizeLast=0;collapsible=1;marginBottom=0;" parent="TPO9WZKhOtRQqy6y_dLW-1" vertex="1">
                    <mxGeometry x="142.5" y="232" width="196" height="138" as="geometry"/>
                </mxCell>
                <mxCell id="TPO9WZKhOtRQqy6y_dLW-4" value="- unit: AntiAirUnit" style="text;strokeColor=none;fillColor=none;align=left;verticalAlign=top;spacingLeft=4;spacingRight=4;overflow=hidden;rotatable=0;points=[[0,0.5],[1,0.5]];portConstraint=eastwest;" parent="TPO9WZKhOtRQqy6y_dLW-3" vertex="1">
                    <mxGeometry y="26" width="196" height="26" as="geometry"/>
                </mxCell>
                <mxCell id="TPO9WZKhOtRQqy6y_dLW-5" value="" style="line;strokeWidth=1;fillColor=none;align=left;verticalAlign=middle;spacingTop=-1;spacingLeft=3;spacingRight=3;rotatable=0;labelPosition=right;points=[];portConstraint=eastwest;" parent="TPO9WZKhOtRQqy6y_dLW-3" vertex="1">
                    <mxGeometry y="52" width="196" height="8" as="geometry"/>
                </mxCell>
                <mxCell id="TPO9WZKhOtRQqy6y_dLW-8" value="+ CommandSender(u: AntiAirUnit)" style="text;strokeColor=none;fillColor=none;align=left;verticalAlign=top;spacingLeft=4;spacingRight=4;overflow=hidden;rotatable=0;points=[[0,0.5],[1,0.5]];portConstraint=eastwest;" parent="TPO9WZKhOtRQqy6y_dLW-3" vertex="1">
                    <mxGeometry y="60" width="196" height="26" as="geometry"/>
                </mxCell>
                <mxCell id="TPO9WZKhOtRQqy6y_dLW-7" value="+ activate()" style="text;strokeColor=none;fillColor=none;align=left;verticalAlign=top;spacingLeft=4;spacingRight=4;overflow=hidden;rotatable=0;points=[[0,0.5],[1,0.5]];portConstraint=eastwest;" parent="TPO9WZKhOtRQqy6y_dLW-3" vertex="1">
                    <mxGeometry y="86" width="196" height="26" as="geometry"/>
                </mxCell>
                <mxCell id="TPO9WZKhOtRQqy6y_dLW-9" value="+ deactivate()" style="text;strokeColor=none;fillColor=none;align=left;verticalAlign=top;spacingLeft=4;spacingRight=4;overflow=hidden;rotatable=0;points=[[0,0.5],[1,0.5]];portConstraint=eastwest;" parent="TPO9WZKhOtRQqy6y_dLW-3" vertex="1">
                    <mxGeometry y="112" width="196" height="26" as="geometry"/>
                </mxCell>
                <mxCell id="TPO9WZKhOtRQqy6y_dLW-11" value="«interface»&#10;AntiAirUnit" style="swimlane;fontStyle=1;align=center;verticalAlign=top;childLayout=stackLayout;horizontal=1;startSize=41;horizontalStack=0;resizeParent=1;resizeParentMax=0;resizeLast=0;collapsible=1;marginBottom=0;" parent="TPO9WZKhOtRQqy6y_dLW-1" vertex="1">
                    <mxGeometry x="413" y="226" width="194" height="171" as="geometry"/>
                </mxCell>
                <mxCell id="TPO9WZKhOtRQqy6y_dLW-14" value="+ isEnabled(): boolean" style="text;strokeColor=none;fillColor=none;align=left;verticalAlign=top;spacingLeft=4;spacingRight=4;overflow=hidden;rotatable=0;points=[[0,0.5],[1,0.5]];portConstraint=eastwest;" parent="TPO9WZKhOtRQqy6y_dLW-11" vertex="1">
                    <mxGeometry y="41" width="194" height="26" as="geometry"/>
                </mxCell>
                <mxCell id="TPO9WZKhOtRQqy6y_dLW-16" value="+ setPowerState(state: boolean)" style="text;strokeColor=none;fillColor=none;align=left;verticalAlign=top;spacingLeft=4;spacingRight=4;overflow=hidden;rotatable=0;points=[[0,0.5],[1,0.5]];portConstraint=eastwest;" parent="TPO9WZKhOtRQqy6y_dLW-11" vertex="1">
                    <mxGeometry y="67" width="194" height="26" as="geometry"/>
                </mxCell>
                <mxCell id="TPO9WZKhOtRQqy6y_dLW-17" value="+ setRadarState(state: boolean)" style="text;strokeColor=none;fillColor=none;align=left;verticalAlign=top;spacingLeft=4;spacingRight=4;overflow=hidden;rotatable=0;points=[[0,0.5],[1,0.5]];portConstraint=eastwest;" parent="TPO9WZKhOtRQqy6y_dLW-11" vertex="1">
                    <mxGeometry y="93" width="194" height="26" as="geometry"/>
                </mxCell>
                <mxCell id="TPO9WZKhOtRQqy6y_dLW-18" value="+ setWeaponState(state: boolean)" style="text;strokeColor=none;fillColor=none;align=left;verticalAlign=top;spacingLeft=4;spacingRight=4;overflow=hidden;rotatable=0;points=[[0,0.5],[1,0.5]];portConstraint=eastwest;" parent="TPO9WZKhOtRQqy6y_dLW-11" vertex="1">
                    <mxGeometry y="119" width="194" height="26" as="geometry"/>
                </mxCell>
                <mxCell id="h7XOjt-IUIKGJMb8XBi7-2" value="+ fire()" style="text;strokeColor=none;fillColor=none;align=left;verticalAlign=top;spacingLeft=4;spacingRight=4;overflow=hidden;rotatable=0;points=[[0,0.5],[1,0.5]];portConstraint=eastwest;" parent="TPO9WZKhOtRQqy6y_dLW-11" vertex="1">
                    <mxGeometry y="145" width="194" height="26" as="geometry"/>
                </mxCell>
                <mxCell id="TPO9WZKhOtRQqy6y_dLW-27" style="edgeStyle=orthogonalEdgeStyle;rounded=0;html=1;exitX=1;exitY=0.5;exitDx=0;exitDy=0;entryX=0;entryY=0.5;entryDx=0;entryDy=0;startArrow=diamondThin;startFill=0;endArrow=open;endFill=0;" parent="TPO9WZKhOtRQqy6y_dLW-1" source="TPO9WZKhOtRQqy6y_dLW-8" target="TPO9WZKhOtRQqy6y_dLW-16" edge="1">
                    <mxGeometry relative="1" as="geometry">
                        <mxPoint x="336" y="353" as="sourcePoint"/>
                    </mxGeometry>
                </mxCell>
                <mxCell id="h7XOjt-IUIKGJMb8XBi7-4" style="edgeStyle=orthogonalEdgeStyle;rounded=0;html=1;exitX=0.5;exitY=0;exitDx=0;exitDy=0;entryX=0.498;entryY=1.005;entryDx=0;entryDy=0;entryPerimeter=0;dashed=1;endArrow=block;endFill=0;" parent="TPO9WZKhOtRQqy6y_dLW-1" source="9FJgXuvUd6z8438CvGMR-4" target="h7XOjt-IUIKGJMb8XBi7-2" edge="1">
                    <mxGeometry relative="1" as="geometry"/>
                </mxCell>
                <mxCell id="9FJgXuvUd6z8438CvGMR-4" value="Tunguska" style="swimlane;fontStyle=1;align=center;verticalAlign=top;childLayout=stackLayout;horizontal=1;startSize=26;horizontalStack=0;resizeParent=1;resizeParentMax=0;resizeLast=0;collapsible=1;marginBottom=0;" parent="TPO9WZKhOtRQqy6y_dLW-1" vertex="1">
                    <mxGeometry x="340" y="453" width="193" height="294" as="geometry"/>
                </mxCell>
                <mxCell id="9FJgXuvUd6z8438CvGMR-5" value="- damage: number" style="text;strokeColor=none;fillColor=none;align=left;verticalAlign=top;spacingLeft=4;spacingRight=4;overflow=hidden;rotatable=0;points=[[0,0.5],[1,0.5]];portConstraint=eastwest;" parent="9FJgXuvUd6z8438CvGMR-4" vertex="1">
                    <mxGeometry y="26" width="193" height="26" as="geometry"/>
                </mxCell>
                <mxCell id="9FJgXuvUd6z8438CvGMR-8" value="- engineState: boolean" style="text;strokeColor=none;fillColor=none;align=left;verticalAlign=top;spacingLeft=4;spacingRight=4;overflow=hidden;rotatable=0;points=[[0,0.5],[1,0.5]];portConstraint=eastwest;" parent="9FJgXuvUd6z8438CvGMR-4" vertex="1">
                    <mxGeometry y="52" width="193" height="26" as="geometry"/>
                </mxCell>
                <mxCell id="9FJgXuvUd6z8438CvGMR-9" value="- radarState: boolean" style="text;strokeColor=none;fillColor=none;align=left;verticalAlign=top;spacingLeft=4;spacingRight=4;overflow=hidden;rotatable=0;points=[[0,0.5],[1,0.5]];portConstraint=eastwest;" parent="9FJgXuvUd6z8438CvGMR-4" vertex="1">
                    <mxGeometry y="78" width="193" height="26" as="geometry"/>
                </mxCell>
                <mxCell id="9FJgXuvUd6z8438CvGMR-10" value="- weaponState: boolean" style="text;strokeColor=none;fillColor=none;align=left;verticalAlign=top;spacingLeft=4;spacingRight=4;overflow=hidden;rotatable=0;points=[[0,0.5],[1,0.5]];portConstraint=eastwest;" parent="9FJgXuvUd6z8438CvGMR-4" vertex="1">
                    <mxGeometry y="104" width="193" height="26" as="geometry"/>
                </mxCell>
                <mxCell id="9FJgXuvUd6z8438CvGMR-6" value="" style="line;strokeWidth=1;fillColor=none;align=left;verticalAlign=middle;spacingTop=-1;spacingLeft=3;spacingRight=3;rotatable=0;labelPosition=right;points=[];portConstraint=eastwest;" parent="9FJgXuvUd6z8438CvGMR-4" vertex="1">
                    <mxGeometry y="130" width="193" height="8" as="geometry"/>
                </mxCell>
                <mxCell id="9FJgXuvUd6z8438CvGMR-7" value="+ Tunguska(damage: number)" style="text;strokeColor=none;fillColor=none;align=left;verticalAlign=top;spacingLeft=4;spacingRight=4;overflow=hidden;rotatable=0;points=[[0,0.5],[1,0.5]];portConstraint=eastwest;" parent="9FJgXuvUd6z8438CvGMR-4" vertex="1">
                    <mxGeometry y="138" width="193" height="26" as="geometry"/>
                </mxCell>
                <mxCell id="9FJgXuvUd6z8438CvGMR-11" value="+ isEnabled(): boolean" style="text;strokeColor=none;fillColor=none;align=left;verticalAlign=top;spacingLeft=4;spacingRight=4;overflow=hidden;rotatable=0;points=[[0,0.5],[1,0.5]];portConstraint=eastwest;" parent="9FJgXuvUd6z8438CvGMR-4" vertex="1">
                    <mxGeometry y="164" width="193" height="26" as="geometry"/>
                </mxCell>
                <mxCell id="9FJgXuvUd6z8438CvGMR-12" value="+ setPowerState(state: boolean)" style="text;strokeColor=none;fillColor=none;align=left;verticalAlign=top;spacingLeft=4;spacingRight=4;overflow=hidden;rotatable=0;points=[[0,0.5],[1,0.5]];portConstraint=eastwest;" parent="9FJgXuvUd6z8438CvGMR-4" vertex="1">
                    <mxGeometry y="190" width="193" height="26" as="geometry"/>
                </mxCell>
                <mxCell id="9FJgXuvUd6z8438CvGMR-13" value="+ setRadarState(state: boolean)" style="text;strokeColor=none;fillColor=none;align=left;verticalAlign=top;spacingLeft=4;spacingRight=4;overflow=hidden;rotatable=0;points=[[0,0.5],[1,0.5]];portConstraint=eastwest;" parent="9FJgXuvUd6z8438CvGMR-4" vertex="1">
                    <mxGeometry y="216" width="193" height="26" as="geometry"/>
                </mxCell>
                <mxCell id="9FJgXuvUd6z8438CvGMR-14" value="+ setWeaponState(state: boolean)" style="text;strokeColor=none;fillColor=none;align=left;verticalAlign=top;spacingLeft=4;spacingRight=4;overflow=hidden;rotatable=0;points=[[0,0.5],[1,0.5]];portConstraint=eastwest;" parent="9FJgXuvUd6z8438CvGMR-4" vertex="1">
                    <mxGeometry y="242" width="193" height="26" as="geometry"/>
                </mxCell>
                <mxCell id="h7XOjt-IUIKGJMb8XBi7-0" value="+ fire()" style="text;strokeColor=none;fillColor=none;align=left;verticalAlign=top;spacingLeft=4;spacingRight=4;overflow=hidden;rotatable=0;points=[[0,0.5],[1,0.5]];portConstraint=eastwest;" parent="9FJgXuvUd6z8438CvGMR-4" vertex="1">
                    <mxGeometry y="268" width="193" height="26" as="geometry"/>
                </mxCell>
                <mxCell id="h7XOjt-IUIKGJMb8XBi7-5" style="edgeStyle=orthogonalEdgeStyle;rounded=0;html=1;exitX=0.5;exitY=0;exitDx=0;exitDy=0;dashed=1;endArrow=block;endFill=0;entryX=0.496;entryY=1;entryDx=0;entryDy=0;entryPerimeter=0;" parent="TPO9WZKhOtRQqy6y_dLW-1" source="9FJgXuvUd6z8438CvGMR-15" target="h7XOjt-IUIKGJMb8XBi7-2" edge="1">
                    <mxGeometry relative="1" as="geometry"/>
                </mxCell>
                <mxCell id="9FJgXuvUd6z8438CvGMR-15" value="SergeantYork" style="swimlane;fontStyle=1;align=center;verticalAlign=top;childLayout=stackLayout;horizontal=1;startSize=26;horizontalStack=0;resizeParent=1;resizeParentMax=0;resizeLast=0;collapsible=1;marginBottom=0;" parent="TPO9WZKhOtRQqy6y_dLW-1" vertex="1">
                    <mxGeometry x="554" y="453" width="193" height="294" as="geometry"/>
                </mxCell>
                <mxCell id="9FJgXuvUd6z8438CvGMR-16" value="- damage: number" style="text;strokeColor=none;fillColor=none;align=left;verticalAlign=top;spacingLeft=4;spacingRight=4;overflow=hidden;rotatable=0;points=[[0,0.5],[1,0.5]];portConstraint=eastwest;" parent="9FJgXuvUd6z8438CvGMR-15" vertex="1">
                    <mxGeometry y="26" width="193" height="26" as="geometry"/>
                </mxCell>
                <mxCell id="9FJgXuvUd6z8438CvGMR-17" value="- engineState: boolean" style="text;strokeColor=none;fillColor=none;align=left;verticalAlign=top;spacingLeft=4;spacingRight=4;overflow=hidden;rotatable=0;points=[[0,0.5],[1,0.5]];portConstraint=eastwest;" parent="9FJgXuvUd6z8438CvGMR-15" vertex="1">
                    <mxGeometry y="52" width="193" height="26" as="geometry"/>
                </mxCell>
                <mxCell id="9FJgXuvUd6z8438CvGMR-18" value="- radarState: boolean" style="text;strokeColor=none;fillColor=none;align=left;verticalAlign=top;spacingLeft=4;spacingRight=4;overflow=hidden;rotatable=0;points=[[0,0.5],[1,0.5]];portConstraint=eastwest;" parent="9FJgXuvUd6z8438CvGMR-15" vertex="1">
                    <mxGeometry y="78" width="193" height="26" as="geometry"/>
                </mxCell>
                <mxCell id="9FJgXuvUd6z8438CvGMR-19" value="- weaponState: boolean" style="text;strokeColor=none;fillColor=none;align=left;verticalAlign=top;spacingLeft=4;spacingRight=4;overflow=hidden;rotatable=0;points=[[0,0.5],[1,0.5]];portConstraint=eastwest;" parent="9FJgXuvUd6z8438CvGMR-15" vertex="1">
                    <mxGeometry y="104" width="193" height="26" as="geometry"/>
                </mxCell>
                <mxCell id="9FJgXuvUd6z8438CvGMR-20" value="" style="line;strokeWidth=1;fillColor=none;align=left;verticalAlign=middle;spacingTop=-1;spacingLeft=3;spacingRight=3;rotatable=0;labelPosition=right;points=[];portConstraint=eastwest;" parent="9FJgXuvUd6z8438CvGMR-15" vertex="1">
                    <mxGeometry y="130" width="193" height="8" as="geometry"/>
                </mxCell>
                <mxCell id="9FJgXuvUd6z8438CvGMR-21" value="+ SergeantYork(damage: number)" style="text;strokeColor=none;fillColor=none;align=left;verticalAlign=top;spacingLeft=4;spacingRight=4;overflow=hidden;rotatable=0;points=[[0,0.5],[1,0.5]];portConstraint=eastwest;" parent="9FJgXuvUd6z8438CvGMR-15" vertex="1">
                    <mxGeometry y="138" width="193" height="26" as="geometry"/>
                </mxCell>
                <mxCell id="9FJgXuvUd6z8438CvGMR-22" value="+ isEnabled(): boolean" style="text;strokeColor=none;fillColor=none;align=left;verticalAlign=top;spacingLeft=4;spacingRight=4;overflow=hidden;rotatable=0;points=[[0,0.5],[1,0.5]];portConstraint=eastwest;" parent="9FJgXuvUd6z8438CvGMR-15" vertex="1">
                    <mxGeometry y="164" width="193" height="26" as="geometry"/>
                </mxCell>
                <mxCell id="9FJgXuvUd6z8438CvGMR-23" value="+ setPowerState(state: boolean)" style="text;strokeColor=none;fillColor=none;align=left;verticalAlign=top;spacingLeft=4;spacingRight=4;overflow=hidden;rotatable=0;points=[[0,0.5],[1,0.5]];portConstraint=eastwest;" parent="9FJgXuvUd6z8438CvGMR-15" vertex="1">
                    <mxGeometry y="190" width="193" height="26" as="geometry"/>
                </mxCell>
                <mxCell id="9FJgXuvUd6z8438CvGMR-24" value="+ setRadarState(state: boolean)" style="text;strokeColor=none;fillColor=none;align=left;verticalAlign=top;spacingLeft=4;spacingRight=4;overflow=hidden;rotatable=0;points=[[0,0.5],[1,0.5]];portConstraint=eastwest;" parent="9FJgXuvUd6z8438CvGMR-15" vertex="1">
                    <mxGeometry y="216" width="193" height="26" as="geometry"/>
                </mxCell>
                <mxCell id="9FJgXuvUd6z8438CvGMR-25" value="+ setWeaponState(state: boolean)" style="text;strokeColor=none;fillColor=none;align=left;verticalAlign=top;spacingLeft=4;spacingRight=4;overflow=hidden;rotatable=0;points=[[0,0.5],[1,0.5]];portConstraint=eastwest;" parent="9FJgXuvUd6z8438CvGMR-15" vertex="1">
                    <mxGeometry y="242" width="193" height="26" as="geometry"/>
                </mxCell>
                <mxCell id="h7XOjt-IUIKGJMb8XBi7-1" value="+ fire()" style="text;strokeColor=none;fillColor=none;align=left;verticalAlign=top;spacingLeft=4;spacingRight=4;overflow=hidden;rotatable=0;points=[[0,0.5],[1,0.5]];portConstraint=eastwest;" parent="9FJgXuvUd6z8438CvGMR-15" vertex="1">
                    <mxGeometry y="268" width="193" height="26" as="geometry"/>
                </mxCell>
            </root>
        </mxGraphModel>
    </diagram>
</mxfile>